<mxfile host="Electron" modified="2025-07-04T12:41:35.399Z" agent="Mozilla/5.0 (Windows NT 10.0; Win64; x64) AppleWebKit/537.36 (KHTML, like Gecko) draw.io/24.5.3 Chrome/124.0.6367.207 Electron/30.0.6 Safari/537.36" etag="TvLI29IOLThhEaFsh--N" version="24.5.3" type="device">
  <diagram id="C5RBs43oDa-KdzZeNtuy" name="Page-1">
    <mxGraphModel dx="1034" dy="557" grid="1" gridSize="10" guides="1" tooltips="1" connect="1" arrows="1" fold="1" page="1" pageScale="1" pageWidth="827" pageHeight="1169" math="0" shadow="0">
      <root>
        <mxCell id="WIyWlLk6GJQsqaUBKTNV-0" />
        <mxCell id="WIyWlLk6GJQsqaUBKTNV-1" parent="WIyWlLk6GJQsqaUBKTNV-0" />
        <mxCell id="LKm5DRya94AW_WMPvn6b-0" value="Kérdés" style="rhombus;whiteSpace=wrap;html=1;" parent="WIyWlLk6GJQsqaUBKTNV-1" vertex="1">
          <mxGeometry x="30" y="63" width="80" height="80" as="geometry" />
        </mxCell>
        <mxCell id="LKm5DRya94AW_WMPvn6b-1" value="Lépés" style="rounded=1;whiteSpace=wrap;html=1;" parent="WIyWlLk6GJQsqaUBKTNV-1" vertex="1">
          <mxGeometry x="20" y="153" width="120" height="60" as="geometry" />
        </mxCell>
        <mxCell id="LKm5DRya94AW_WMPvn6b-2" value="A lépés lehet, hogy tovább tart" style="rounded=1;whiteSpace=wrap;html=1;dashed=1;dashPattern=12 12;" parent="WIyWlLk6GJQsqaUBKTNV-1" vertex="1">
          <mxGeometry x="140" y="153" width="120" height="60" as="geometry" />
        </mxCell>
        <mxCell id="LKm5DRya94AW_WMPvn6b-3" value="" style="endArrow=none;html=1;rounded=0;entryX=1;entryY=0.25;entryDx=0;entryDy=0;" parent="WIyWlLk6GJQsqaUBKTNV-1" target="LKm5DRya94AW_WMPvn6b-1" edge="1">
          <mxGeometry width="50" height="50" relative="1" as="geometry">
            <mxPoint x="138.32999999999998" y="283" as="sourcePoint" />
            <mxPoint x="138.32999999999998" y="213" as="targetPoint" />
          </mxGeometry>
        </mxCell>
        <mxCell id="LKm5DRya94AW_WMPvn6b-4" value="Ez jelöli, hogy ezen lépés&amp;nbsp;&lt;div&gt;vége triggereli a kövi lépést&lt;/div&gt;" style="edgeLabel;html=1;align=center;verticalAlign=middle;resizable=0;points=[];" parent="LKm5DRya94AW_WMPvn6b-3" vertex="1" connectable="0">
          <mxGeometry y="-3" relative="1" as="geometry">
            <mxPoint as="offset" />
          </mxGeometry>
        </mxCell>
        <mxCell id="LKm5DRya94AW_WMPvn6b-5" value="" style="endArrow=none;html=1;rounded=0;dashed=1;dashPattern=12 12;" parent="WIyWlLk6GJQsqaUBKTNV-1" edge="1">
          <mxGeometry width="50" height="50" relative="1" as="geometry">
            <mxPoint x="261" y="360" as="sourcePoint" />
            <mxPoint x="260" y="170" as="targetPoint" />
          </mxGeometry>
        </mxCell>
        <mxCell id="LKm5DRya94AW_WMPvn6b-6" value="Ez jelöli, ugyanaz,&amp;nbsp;&lt;div&gt;mint a teli vonal,&amp;nbsp;&lt;div&gt;csak a szaggatott&amp;nbsp;&lt;/div&gt;&lt;div&gt;dobozokhoz tartozóan.&amp;nbsp;&lt;/div&gt;&lt;div&gt;&lt;br&gt;&lt;/div&gt;&lt;div&gt;A &quot;lehet, hogy tovább&amp;nbsp;&lt;/div&gt;&lt;div&gt;tart&quot; lépés vége,&amp;nbsp;&lt;/div&gt;&lt;div&gt;ami triggeli a kövi lépést&lt;/div&gt;&lt;/div&gt;" style="edgeLabel;html=1;align=center;verticalAlign=middle;resizable=0;points=[];" parent="LKm5DRya94AW_WMPvn6b-5" vertex="1" connectable="0">
          <mxGeometry y="-3" relative="1" as="geometry">
            <mxPoint as="offset" />
          </mxGeometry>
        </mxCell>
        <mxCell id="LKm5DRya94AW_WMPvn6b-7" value="FUSION kiértékelés workflow&lt;br&gt;SPECT CT, PET CT kiértékelés" style="text;html=1;align=center;verticalAlign=middle;resizable=0;points=[];autosize=1;strokeColor=none;fillColor=none;" parent="WIyWlLk6GJQsqaUBKTNV-1" vertex="1">
          <mxGeometry x="285" y="3" width="190" height="40" as="geometry" />
        </mxCell>
        <mxCell id="LKm5DRya94AW_WMPvn6b-8" value="Kép betöltés" style="rounded=1;whiteSpace=wrap;html=1;" parent="WIyWlLk6GJQsqaUBKTNV-1" vertex="1">
          <mxGeometry x="27" y="510" width="120" height="60" as="geometry" />
        </mxCell>
        <mxCell id="LKm5DRya94AW_WMPvn6b-10" value="Kép irány kiválasztása" style="whiteSpace=wrap;html=1;rounded=1;" parent="WIyWlLk6GJQsqaUBKTNV-1" vertex="1">
          <mxGeometry x="147" y="720" width="240" height="60" as="geometry" />
        </mxCell>
        <mxCell id="LKm5DRya94AW_WMPvn6b-12" value="Ablakolás/palettázás" style="whiteSpace=wrap;html=1;rounded=1;" parent="WIyWlLk6GJQsqaUBKTNV-1" vertex="1">
          <mxGeometry x="147" y="790" width="240" height="60" as="geometry" />
        </mxCell>
        <mxCell id="LKm5DRya94AW_WMPvn6b-14" value="Fúzió létrehozása" style="whiteSpace=wrap;html=1;rounded=1;" parent="WIyWlLk6GJQsqaUBKTNV-1" vertex="1">
          <mxGeometry x="147" y="960" width="120" height="60" as="geometry" />
        </mxCell>
        <mxCell id="LKm5DRya94AW_WMPvn6b-16" value="Fúzió regisztrálása" style="whiteSpace=wrap;html=1;rounded=1;" parent="WIyWlLk6GJQsqaUBKTNV-1" vertex="1">
          <mxGeometry x="267" y="1020" width="120" height="60" as="geometry" />
        </mxCell>
        <mxCell id="LKm5DRya94AW_WMPvn6b-18" value="MIP-es kép létrehozása" style="whiteSpace=wrap;html=1;rounded=1;" parent="WIyWlLk6GJQsqaUBKTNV-1" vertex="1">
          <mxGeometry x="387" y="1090" width="243" height="60" as="geometry" />
        </mxCell>
        <mxCell id="LKm5DRya94AW_WMPvn6b-20" value="ROI(k) felrajzolása (measurement műveletek)" style="whiteSpace=wrap;html=1;rounded=1;" parent="WIyWlLk6GJQsqaUBKTNV-1" vertex="1">
          <mxGeometry x="387" y="1160" width="243" height="60" as="geometry" />
        </mxCell>
        <mxCell id="LKm5DRya94AW_WMPvn6b-22" value="Image processing létrehozása" style="whiteSpace=wrap;html=1;rounded=1;" parent="WIyWlLk6GJQsqaUBKTNV-1" vertex="1">
          <mxGeometry x="387" y="1230" width="120" height="60" as="geometry" />
        </mxCell>
        <mxCell id="LKm5DRya94AW_WMPvn6b-26" value="Szegmentációk" style="rounded=1;whiteSpace=wrap;html=1;" parent="WIyWlLk6GJQsqaUBKTNV-1" vertex="1">
          <mxGeometry x="511" y="1310" width="120" height="60" as="geometry" />
        </mxCell>
        <mxCell id="LKm5DRya94AW_WMPvn6b-31" value="Workspace-ek létrehozása" style="rounded=1;whiteSpace=wrap;html=1;" parent="WIyWlLk6GJQsqaUBKTNV-1" vertex="1">
          <mxGeometry x="147" y="875" width="240" height="60" as="geometry" />
        </mxCell>
        <mxCell id="LKm5DRya94AW_WMPvn6b-33" value="Secondary capture készítés és reporting" style="rounded=1;whiteSpace=wrap;html=1;" parent="WIyWlLk6GJQsqaUBKTNV-1" vertex="1">
          <mxGeometry x="631" y="1380" width="120" height="60" as="geometry" />
        </mxCell>
        <mxCell id="LKm5DRya94AW_WMPvn6b-38" value="" style="endArrow=none;html=1;rounded=0;" parent="WIyWlLk6GJQsqaUBKTNV-1" edge="1">
          <mxGeometry width="50" height="50" relative="1" as="geometry">
            <mxPoint x="147" y="1070" as="sourcePoint" />
            <mxPoint x="150" y="510" as="targetPoint" />
          </mxGeometry>
        </mxCell>
        <mxCell id="LKm5DRya94AW_WMPvn6b-40" value="" style="endArrow=none;html=1;rounded=0;" parent="WIyWlLk6GJQsqaUBKTNV-1" edge="1">
          <mxGeometry width="50" height="50" relative="1" as="geometry">
            <mxPoint x="267" y="1090" as="sourcePoint" />
            <mxPoint x="267" y="960" as="targetPoint" />
          </mxGeometry>
        </mxCell>
        <mxCell id="LKm5DRya94AW_WMPvn6b-41" value="" style="endArrow=none;html=1;rounded=0;" parent="WIyWlLk6GJQsqaUBKTNV-1" edge="1">
          <mxGeometry width="50" height="50" relative="1" as="geometry">
            <mxPoint x="387" y="1340" as="sourcePoint" />
            <mxPoint x="387" y="720" as="targetPoint" />
          </mxGeometry>
        </mxCell>
        <mxCell id="LKm5DRya94AW_WMPvn6b-42" value="Layout (Előre definiált irány választás, ablakozás, worlkspace létrehozás)" style="whiteSpace=wrap;html=1;rounded=1;" parent="WIyWlLk6GJQsqaUBKTNV-1" vertex="1">
          <mxGeometry x="147" y="560" width="293" height="60" as="geometry" />
        </mxCell>
        <mxCell id="LKm5DRya94AW_WMPvn6b-46" value="" style="endArrow=none;html=1;rounded=0;" parent="WIyWlLk6GJQsqaUBKTNV-1" edge="1">
          <mxGeometry width="50" height="50" relative="1" as="geometry">
            <mxPoint x="510" y="1400" as="sourcePoint" />
            <mxPoint x="510" y="1230" as="targetPoint" />
          </mxGeometry>
        </mxCell>
        <mxCell id="LKm5DRya94AW_WMPvn6b-47" value="" style="endArrow=none;html=1;rounded=0;entryX=1;entryY=0;entryDx=0;entryDy=0;" parent="WIyWlLk6GJQsqaUBKTNV-1" target="LKm5DRya94AW_WMPvn6b-18" edge="1">
          <mxGeometry width="50" height="50" relative="1" as="geometry">
            <mxPoint x="630" y="1460" as="sourcePoint" />
            <mxPoint x="580" y="1210" as="targetPoint" />
          </mxGeometry>
        </mxCell>
      </root>
    </mxGraphModel>
  </diagram>
</mxfile>
